<svg width="648" height="550" viewBox="0 0 648 550" fill="none" xmlns="http://www.w3.org/2000/svg">
<path d="M583.897 116.791L648 110.876L585.297 105.088L636.38 49.5391L580.227 100.725L574.341 37.5397L568.394 101.428L543.266 80.6531L563.621 105.064L500.687 110.876L564.035 116.724L501.594 183.734L568.54 121.9L574.341 184.206L580.172 121.615L605.129 142.244L583.897 116.791Z" fill="#FCB803"/>
<path d="M84.7793 112.898V126.478C84.7793 149.377 71.942 149.377 71.942 172.809C71.942 195.975 84.7793 195.975 84.7793 219.406V266.27H61.2443V219.673H37.4419V266.27H13.907V219.406C13.907 195.975 1.33721 195.975 1.33721 172.809C1.33721 149.377 13.907 149.377 13.907 126.478V112.898C13.907 97.721 23.8024 84.6738 37.4419 79.8809C41.1861 78.5496 45.1978 77.7508 49.2094 77.7508C53.4885 77.7508 57.5001 78.5496 61.2443 79.8809C74.8839 84.6738 84.7793 97.721 84.7793 112.898ZM61.2443 126.478V114.762C61.2443 108.372 55.8955 103.046 49.2094 103.046C42.7908 103.046 37.4419 108.372 37.4419 114.762V126.478C37.4419 149.377 24.8722 149.377 24.8722 172.809C24.8722 184.791 28.3489 190.383 31.5582 196.507H55.0932C51.8838 190.383 48.4071 184.791 48.4071 172.809C48.4071 149.377 61.2443 149.377 61.2443 126.478Z" fill="#0034EB"/>
<path d="M147.432 82.0111C160.537 86.5377 170.164 98.7861 170.699 113.697V114.496C170.699 115.029 170.699 115.827 170.699 116.36C170.699 126.744 164.816 134.466 160.269 137.928C165.35 144.585 161.339 152.839 159.467 161.626C158.664 164.821 158.13 168.549 158.13 173.075C158.13 195.975 170.699 195.975 170.699 219.406V266.27H147.164V219.406C147.164 195.975 134.595 195.975 134.595 173.075C134.595 166.685 135.664 161.892 137.002 158.164C138.874 153.105 136.734 149.644 126.839 149.644H117.211C114.269 155.502 111.06 161.36 111.06 173.075C111.06 195.975 123.629 195.975 123.629 219.406V230.323C123.629 234.051 123.629 238.045 123.629 242.306V266.27H100.095V219.406C100.095 195.975 87.5247 195.975 87.5247 173.075C87.5247 149.644 100.095 149.644 100.095 126.744V79.8809H135.664C139.676 79.8809 143.688 80.6798 147.432 82.0111ZM123.897 126.212H135.664C141.816 126.212 146.63 121.685 147.164 115.561C147.164 115.295 147.432 115.029 147.432 114.762V114.496C147.432 114.23 147.164 114.23 147.164 113.963C146.63 107.839 141.816 103.313 135.664 103.313H123.897V126.212Z" fill="#0034EB"/>
<path d="M233.358 124.348V112.898C233.358 106.242 228.009 101.183 221.323 101.183C214.905 101.183 209.556 106.242 209.556 112.898V126.478C209.556 149.644 196.986 149.644 196.986 172.809C196.986 195.975 209.556 195.975 209.556 219.406V232.986C209.556 239.643 214.905 244.702 221.323 244.702C228.009 244.702 233.358 239.643 233.358 232.986V221.537H256.893V232.986C256.893 248.43 246.998 261.477 233.358 266.27C229.614 267.601 225.602 268.134 221.323 268.134C217.312 268.134 213.3 267.601 209.556 266.27C195.916 261.211 186.021 248.43 186.021 232.986V219.406C186.021 195.975 173.451 195.975 173.451 172.809C173.451 149.644 186.021 149.644 186.021 126.478V112.898C186.021 97.721 195.916 84.6738 209.556 79.8809V79.6147C213.3 78.2833 217.312 77.7508 221.323 77.7508C225.602 77.7508 229.614 78.2833 233.358 79.6147C246.998 84.4075 256.893 97.4548 256.893 112.898V124.348H233.358Z" fill="#0034EB"/>
<path d="M342.813 79.8809V126.744C342.813 149.644 330.243 149.644 330.243 173.075C330.243 195.975 342.813 195.975 342.813 219.406V266.27H319.278V219.406C319.278 195.975 306.708 195.975 306.708 173.075C306.708 161.36 309.918 155.502 313.127 149.644H289.592C286.383 155.502 283.174 161.36 283.174 173.075C283.174 195.975 295.743 195.975 295.743 219.406V266.27H272.208V219.406C272.208 195.975 259.639 195.975 259.639 173.075C259.639 149.644 272.208 149.644 272.208 126.744V79.8809H295.743V126.478H319.278V79.8809H342.813Z" fill="#0034EB"/>
<path d="M358.135 266.27V219.406C358.135 195.975 345.565 195.975 345.565 173.075C345.565 149.644 358.135 149.644 358.135 126.744V79.8809H381.67V126.744C381.67 149.644 369.1 149.644 369.1 173.075C369.1 195.975 381.67 195.975 381.67 219.406V266.27H358.135Z" fill="#0034EB"/>
<path d="M360.254 319.031V307.581C360.254 300.924 354.905 295.865 348.219 295.865C341.8 295.865 336.451 300.924 336.451 307.581V321.161C336.451 344.326 323.882 344.326 323.882 367.492C323.882 390.657 336.451 390.657 336.451 414.089V427.669C336.451 434.325 341.8 439.385 348.219 439.385C354.905 439.385 360.254 434.325 360.254 427.669V416.219H383.789V427.669C383.789 443.112 373.893 456.16 360.254 460.952C356.51 462.284 352.498 462.816 348.219 462.816C344.207 462.816 340.196 462.284 336.451 460.952C322.812 455.893 312.916 443.112 312.916 427.669V414.089C312.916 390.657 300.347 390.657 300.347 367.492C300.347 344.326 312.916 344.326 312.916 321.161V307.581C312.916 292.404 322.812 279.356 336.451 274.563V274.297C340.196 272.966 344.207 272.433 348.219 272.433C352.498 272.433 356.51 272.966 360.254 274.297C373.893 279.09 383.789 292.137 383.789 307.581V319.031H360.254Z" fill="#0034EB"/>
<path d="M446.441 274.563C460.081 279.356 469.976 292.404 469.976 307.581V311.042C469.976 312.108 469.976 315.036 469.976 316.368V321.427C469.976 344.326 457.406 344.326 457.406 367.758C457.406 390.657 469.976 390.657 469.976 414.089V427.669C469.976 443.112 460.081 456.16 446.441 460.952C442.697 462.284 438.685 462.816 434.674 462.816C430.395 462.816 426.651 462.284 422.906 460.952C408.999 456.16 399.371 443.112 399.371 427.669V414.089C399.371 390.657 386.534 390.657 386.534 367.758C386.534 344.326 399.371 344.326 399.371 321.427V316.368C399.371 314.77 399.371 311.309 399.371 310.244V307.581C399.371 292.404 408.999 279.356 422.906 274.563C426.651 273.232 430.395 272.433 434.674 272.433C438.685 272.433 442.697 273.232 446.441 274.563ZM446.441 311.042V307.581C446.441 301.19 441.092 295.865 434.674 295.865C427.988 295.865 422.906 301.19 422.906 307.581V311.042C422.906 312.108 422.906 315.036 422.906 316.368V321.427C422.906 344.326 410.069 344.326 410.069 367.758C410.069 390.657 422.906 390.657 422.906 414.089V427.669C422.906 434.325 427.988 439.385 434.674 439.385C441.092 439.385 446.441 434.325 446.441 427.669V414.089C446.441 390.657 433.872 390.657 433.872 367.758C433.872 344.326 446.441 344.326 446.441 321.427V316.368C446.441 315.036 446.441 312.108 446.441 311.042Z" fill="#0034EB"/>
<path d="M532.629 274.563C546.268 279.356 556.164 292.404 556.164 307.581V311.042C556.164 312.108 556.164 315.036 556.164 316.368V321.427C556.164 344.326 543.594 344.326 543.594 367.758C543.594 390.657 556.164 390.657 556.164 414.089V427.669C556.164 443.112 546.268 456.16 532.629 460.952C528.885 462.284 524.873 462.816 520.861 462.816C516.582 462.816 512.838 462.284 509.094 460.952C495.187 456.16 485.559 443.112 485.559 427.669V414.089C485.559 390.657 472.722 390.657 472.722 367.758C472.722 344.326 485.559 344.326 485.559 321.427V316.368C485.559 314.77 485.559 311.309 485.559 310.244V307.581C485.559 292.404 495.187 279.356 509.094 274.563C512.838 273.232 516.582 272.433 520.861 272.433C524.873 272.433 528.885 273.232 532.629 274.563ZM532.629 311.042V307.581C532.629 301.19 527.28 295.865 520.861 295.865C514.175 295.865 509.094 301.19 509.094 307.581V311.042C509.094 312.108 509.094 315.036 509.094 316.368V321.427C509.094 344.326 496.257 344.326 496.257 367.758C496.257 390.657 509.094 390.657 509.094 414.089V427.669C509.094 434.325 514.175 439.385 520.861 439.385C527.28 439.385 532.629 434.325 532.629 427.669V414.089C532.629 390.657 520.059 390.657 520.059 367.758C520.059 344.326 532.629 344.326 532.629 321.427V316.368C532.629 315.036 532.629 312.108 532.629 311.042Z" fill="#0034EB"/>
<path d="M642.084 437.521V460.952H571.479V414.089C571.479 390.657 558.909 390.657 558.909 367.758C558.909 344.326 571.479 344.326 571.479 321.427V274.563H595.014V321.427C595.014 344.326 582.444 344.326 582.444 367.758C582.444 390.657 595.014 390.657 595.014 414.089V437.521H642.084Z" fill="#0034EB"/>
</svg>
