<svg width="641" height="850" viewBox="0 0 641 850" fill="none" xmlns="http://www.w3.org/2000/svg">
<path d="M59.5 613C54.8521 613 50.3087 614.378 46.4441 616.96C42.5796 619.543 39.5675 623.213 37.7888 627.507C36.0102 631.801 35.5448 636.526 36.4516 641.085C37.3583 645.643 39.5965 649.83 42.883 653.117C46.1695 656.404 50.3568 658.642 54.9154 659.548C59.4739 660.455 64.199 659.99 68.4931 658.211C72.7871 656.432 76.4573 653.42 79.0395 649.556C81.6217 645.691 83 641.148 83 636.5C82.9934 630.269 80.5154 624.296 76.1097 619.89C71.7041 615.485 65.7306 613.007 59.5 613ZM59.5 656.385C55.5672 656.385 51.7227 655.218 48.4527 653.033C45.1827 650.848 42.634 647.743 41.129 644.11C39.624 640.476 39.2302 636.478 39.9975 632.621C40.7647 628.763 42.6585 625.22 45.4395 622.439C48.2204 619.659 51.7635 617.765 55.6207 616.997C59.4779 616.23 63.4761 616.624 67.1095 618.129C70.743 619.634 73.8485 622.183 76.0335 625.453C78.2184 628.723 79.3846 632.567 79.3846 636.5C79.3786 641.772 77.2817 646.826 73.5539 650.554C69.8262 654.282 64.7719 656.379 59.5 656.385ZM48.6539 631.981C48.6539 631.444 48.8129 630.92 49.1108 630.474C49.4088 630.028 49.8323 629.681 50.3277 629.476C50.8232 629.27 51.3684 629.217 51.8944 629.321C52.4204 629.426 52.9035 629.684 53.2827 630.063C53.662 630.443 53.9202 630.926 54.0248 631.452C54.1295 631.978 54.0758 632.523 53.8705 633.018C53.6653 633.514 53.3178 633.937 52.8718 634.235C52.4259 634.533 51.9017 634.692 51.3654 634.692C50.6462 634.692 49.9566 634.407 49.448 633.898C48.9395 633.39 48.6539 632.7 48.6539 631.981ZM70.3462 631.981C70.3462 632.517 70.1871 633.041 69.8892 633.487C69.5912 633.933 69.1677 634.281 68.6723 634.486C68.1768 634.691 67.6316 634.745 67.1056 634.64C66.5796 634.536 66.0965 634.277 65.7173 633.898C65.3381 633.519 65.0798 633.036 64.9752 632.51C64.8706 631.984 64.9243 631.439 65.1295 630.943C65.3347 630.448 65.6823 630.024 66.1282 629.726C66.5741 629.428 67.0983 629.269 67.6346 629.269C68.3538 629.269 69.0435 629.555 69.552 630.063C70.0605 630.572 70.3462 631.262 70.3462 631.981ZM70.1044 642.827C67.7792 646.847 63.913 649.154 59.5 649.154C55.087 649.154 51.223 646.849 48.8979 642.827C48.7671 642.621 48.6793 642.391 48.6397 642.151C48.6001 641.91 48.6096 641.664 48.6676 641.427C48.7256 641.19 48.831 640.968 48.9772 640.773C49.1235 640.578 49.3077 640.414 49.5188 640.292C49.7299 640.17 49.9634 640.092 50.2055 640.063C50.4475 640.033 50.6929 640.053 50.9271 640.121C51.1612 640.189 51.3792 640.304 51.5679 640.458C51.7567 640.612 51.9122 640.803 52.0252 641.019C53.7131 643.936 56.3659 645.538 59.5 645.538C62.6341 645.538 65.2869 643.934 66.9726 641.019C67.2123 640.604 67.6071 640.301 68.0703 640.177C68.5335 640.053 69.027 640.117 69.4423 640.357C69.8576 640.597 70.1607 640.992 70.2849 641.455C70.409 641.918 70.3441 642.412 70.1044 642.827Z" fill="#FCB803"/>
<path d="M419.5 714C414.852 714 410.309 715.378 406.444 717.96C402.58 720.543 399.568 724.213 397.789 728.507C396.01 732.801 395.545 737.526 396.452 742.085C397.358 746.643 399.596 750.83 402.883 754.117C406.17 757.404 410.357 759.642 414.915 760.548C419.474 761.455 424.199 760.99 428.493 759.211C432.787 757.432 436.457 754.42 439.04 750.556C441.622 746.691 443 742.148 443 737.5C442.993 731.269 440.515 725.296 436.11 720.89C431.704 716.485 425.731 714.007 419.5 714ZM419.5 757.385C415.567 757.385 411.723 756.218 408.453 754.033C405.183 751.848 402.634 748.743 401.129 745.11C399.624 741.476 399.23 737.478 399.997 733.621C400.765 729.763 402.659 726.22 405.439 723.439C408.22 720.659 411.763 718.765 415.621 717.997C419.478 717.23 423.476 717.624 427.11 719.129C430.743 720.634 433.849 723.183 436.033 726.453C438.218 729.723 439.385 733.567 439.385 737.5C439.379 742.772 437.282 747.826 433.554 751.554C429.826 755.282 424.772 757.379 419.5 757.385ZM408.654 732.981C408.654 732.444 408.813 731.92 409.111 731.474C409.409 731.028 409.832 730.681 410.328 730.476C410.823 730.27 411.368 730.217 411.894 730.321C412.42 730.426 412.904 730.684 413.283 731.063C413.662 731.443 413.92 731.926 414.025 732.452C414.129 732.978 414.076 733.523 413.871 734.018C413.665 734.514 413.318 734.937 412.872 735.235C412.426 735.533 411.902 735.692 411.365 735.692C410.646 735.692 409.957 735.407 409.448 734.898C408.94 734.39 408.654 733.7 408.654 732.981ZM430.346 732.981C430.346 733.517 430.187 734.041 429.889 734.487C429.591 734.933 429.168 735.281 428.672 735.486C428.177 735.691 427.632 735.745 427.106 735.64C426.58 735.536 426.096 735.277 425.717 734.898C425.338 734.519 425.08 734.036 424.975 733.51C424.871 732.984 424.924 732.439 425.129 731.943C425.335 731.448 425.682 731.024 426.128 730.726C426.574 730.428 427.098 730.269 427.635 730.269C428.354 730.269 429.043 730.555 429.552 731.063C430.06 731.572 430.346 732.262 430.346 732.981ZM430.104 743.827C427.779 747.847 423.913 750.154 419.5 750.154C415.087 750.154 411.223 747.849 408.898 743.827C408.767 743.621 408.679 743.391 408.64 743.151C408.6 742.91 408.61 742.664 408.668 742.427C408.726 742.19 408.831 741.968 408.977 741.773C409.123 741.578 409.308 741.414 409.519 741.292C409.73 741.17 409.963 741.092 410.205 741.063C410.447 741.033 410.693 741.053 410.927 741.121C411.161 741.189 411.379 741.304 411.568 741.458C411.757 741.612 411.912 741.803 412.025 742.019C413.713 744.936 416.366 746.538 419.5 746.538C422.634 746.538 425.287 744.934 426.973 742.019C427.212 741.604 427.607 741.301 428.07 741.177C428.533 741.053 429.027 741.117 429.442 741.357C429.858 741.597 430.161 741.992 430.285 742.455C430.409 742.918 430.344 743.412 430.104 743.827Z" fill="#FCB803"/>
<path d="M617.5 555C612.852 555 608.309 556.378 604.444 558.96C600.58 561.543 597.568 565.213 595.789 569.507C594.01 573.801 593.545 578.526 594.452 583.085C595.358 587.643 597.596 591.83 600.883 595.117C604.17 598.404 608.357 600.642 612.915 601.548C617.474 602.455 622.199 601.99 626.493 600.211C630.787 598.432 634.457 595.42 637.04 591.556C639.622 587.691 641 583.148 641 578.5C640.993 572.269 638.515 566.296 634.11 561.89C629.704 557.485 623.731 555.007 617.5 555ZM617.5 598.385C613.567 598.385 609.723 597.218 606.453 595.033C603.183 592.848 600.634 589.743 599.129 586.11C597.624 582.476 597.23 578.478 597.997 574.621C598.765 570.763 600.659 567.22 603.439 564.439C606.22 561.659 609.763 559.765 613.621 558.997C617.478 558.23 621.476 558.624 625.11 560.129C628.743 561.634 631.849 564.183 634.033 567.453C636.218 570.723 637.385 574.567 637.385 578.5C637.379 583.772 635.282 588.826 631.554 592.554C627.826 596.282 622.772 598.379 617.5 598.385ZM606.654 573.981C606.654 573.444 606.813 572.92 607.111 572.474C607.409 572.028 607.832 571.681 608.328 571.476C608.823 571.27 609.368 571.217 609.894 571.321C610.42 571.426 610.904 571.684 611.283 572.063C611.662 572.443 611.92 572.926 612.025 573.452C612.129 573.978 612.076 574.523 611.871 575.018C611.665 575.514 611.318 575.937 610.872 576.235C610.426 576.533 609.902 576.692 609.365 576.692C608.646 576.692 607.957 576.407 607.448 575.898C606.94 575.39 606.654 574.7 606.654 573.981ZM628.346 573.981C628.346 574.517 628.187 575.041 627.889 575.487C627.591 575.933 627.168 576.281 626.672 576.486C626.177 576.691 625.632 576.745 625.106 576.64C624.58 576.536 624.096 576.277 623.717 575.898C623.338 575.519 623.08 575.036 622.975 574.51C622.871 573.984 622.924 573.439 623.129 572.943C623.335 572.448 623.682 572.024 624.128 571.726C624.574 571.428 625.098 571.269 625.635 571.269C626.354 571.269 627.043 571.555 627.552 572.063C628.06 572.572 628.346 573.262 628.346 573.981ZM628.104 584.827C625.779 588.847 621.913 591.154 617.5 591.154C613.087 591.154 609.223 588.849 606.898 584.827C606.767 584.621 606.679 584.391 606.64 584.151C606.6 583.91 606.61 583.664 606.668 583.427C606.726 583.19 606.831 582.968 606.977 582.773C607.123 582.578 607.308 582.414 607.519 582.292C607.73 582.17 607.963 582.092 608.205 582.063C608.447 582.033 608.693 582.053 608.927 582.121C609.161 582.189 609.379 582.304 609.568 582.458C609.757 582.612 609.912 582.803 610.025 583.019C611.713 585.936 614.366 587.538 617.5 587.538C620.634 587.538 623.287 585.934 624.973 583.019C625.212 582.604 625.607 582.301 626.07 582.177C626.533 582.053 627.027 582.117 627.442 582.357C627.858 582.597 628.161 582.992 628.285 583.455C628.409 583.918 628.344 584.412 628.104 584.827Z" fill="#FCB803"/>
<path d="M156.5 827C151.852 827 147.309 828.378 143.444 830.96C139.58 833.543 136.568 837.213 134.789 841.507C133.01 845.801 132.545 850.526 133.452 855.085C134.358 859.643 136.596 863.83 139.883 867.117C143.17 870.404 147.357 872.642 151.915 873.548C156.474 874.455 161.199 873.99 165.493 872.211C169.787 870.432 173.457 867.42 176.04 863.556C178.622 859.691 180 855.148 180 850.5C179.993 844.269 177.515 838.296 173.11 833.89C168.704 829.485 162.731 827.007 156.5 827ZM156.5 870.385C152.567 870.385 148.723 869.218 145.453 867.033C142.183 864.848 139.634 861.743 138.129 858.11C136.624 854.476 136.23 850.478 136.997 846.621C137.765 842.763 139.659 839.22 142.439 836.439C145.22 833.659 148.763 831.765 152.621 830.997C156.478 830.23 160.476 830.624 164.11 832.129C167.743 833.634 170.849 836.183 173.033 839.453C175.218 842.723 176.385 846.567 176.385 850.5C176.379 855.772 174.282 860.826 170.554 864.554C166.826 868.282 161.772 870.379 156.5 870.385ZM145.654 845.981C145.654 845.444 145.813 844.92 146.111 844.474C146.409 844.028 146.832 843.681 147.328 843.476C147.823 843.27 148.368 843.217 148.894 843.321C149.42 843.426 149.904 843.684 150.283 844.063C150.662 844.443 150.92 844.926 151.025 845.452C151.129 845.978 151.076 846.523 150.871 847.018C150.665 847.514 150.318 847.937 149.872 848.235C149.426 848.533 148.902 848.692 148.365 848.692C147.646 848.692 146.957 848.407 146.448 847.898C145.94 847.39 145.654 846.7 145.654 845.981ZM167.346 845.981C167.346 846.517 167.187 847.041 166.889 847.487C166.591 847.933 166.168 848.281 165.672 848.486C165.177 848.691 164.632 848.745 164.106 848.64C163.58 848.536 163.096 848.277 162.717 847.898C162.338 847.519 162.08 847.036 161.975 846.51C161.871 845.984 161.924 845.439 162.129 844.943C162.335 844.448 162.682 844.024 163.128 843.726C163.574 843.428 164.098 843.269 164.635 843.269C165.354 843.269 166.043 843.555 166.552 844.063C167.06 844.572 167.346 845.262 167.346 845.981ZM167.104 856.827C164.779 860.847 160.913 863.154 156.5 863.154C152.087 863.154 148.223 860.849 145.898 856.827C145.767 856.621 145.679 856.391 145.64 856.151C145.6 855.91 145.61 855.664 145.668 855.427C145.726 855.19 145.831 854.968 145.977 854.773C146.123 854.578 146.308 854.414 146.519 854.292C146.73 854.17 146.963 854.092 147.205 854.063C147.447 854.033 147.693 854.053 147.927 854.121C148.161 854.189 148.379 854.304 148.568 854.458C148.757 854.612 148.912 854.803 149.025 855.019C150.713 857.936 153.366 859.538 156.5 859.538C159.634 859.538 162.287 857.934 163.973 855.019C164.212 854.604 164.607 854.301 165.07 854.177C165.533 854.053 166.027 854.117 166.442 854.357C166.858 854.597 167.161 854.992 167.285 855.455C167.409 855.918 167.344 856.412 167.104 856.827Z" fill="#FCB803"/>
<path d="M23.5 37C18.8521 37 14.3087 38.3783 10.4441 40.9605C6.57955 43.5427 3.5675 47.2129 1.78884 51.5069C0.0101822 55.801 -0.455196 60.5261 0.451556 65.0846C1.35831 69.6432 3.59647 73.8305 6.883 77.117C10.1695 80.4035 14.3568 82.6417 18.9154 83.5484C23.4739 84.4552 28.199 83.9898 32.4931 82.2112C36.7871 80.4325 40.4573 77.4204 43.0395 73.5559C45.6217 69.6913 47 65.1479 47 60.5C46.9934 54.2694 44.5154 48.2959 40.1097 43.8903C35.7041 39.4846 29.7306 37.0066 23.5 37ZM23.5 80.3846C19.5672 80.3846 15.7227 79.2184 12.4527 77.0334C9.1827 74.8485 6.63404 71.7429 5.12902 68.1095C3.624 64.4761 3.23022 60.4779 3.99747 56.6207C4.76472 52.7635 6.65855 49.2204 9.43946 46.4395C12.2204 43.6585 15.7635 41.7647 19.6207 40.9975C23.4779 40.2302 27.4761 40.624 31.1095 42.129C34.743 43.634 37.8485 46.1827 40.0335 49.4527C42.2184 52.7227 43.3846 56.5672 43.3846 60.5C43.3786 65.7719 41.2817 70.8261 37.5539 74.5539C33.8262 78.2817 28.7719 80.3786 23.5 80.3846ZM12.6539 55.9808C12.6539 55.4445 12.8129 54.9202 13.1108 54.4743C13.4088 54.0284 13.8323 53.6809 14.3277 53.4756C14.8232 53.2704 15.3684 53.2167 15.8944 53.3213C16.4204 53.426 16.9035 53.6842 17.2827 54.0634C17.662 54.4426 17.9202 54.9258 18.0248 55.4518C18.1295 55.9778 18.0758 56.523 17.8705 57.0184C17.6653 57.5139 17.3178 57.9374 16.8718 58.2353C16.4259 58.5333 15.9017 58.6923 15.3654 58.6923C14.6462 58.6923 13.9566 58.4066 13.448 57.8981C12.9395 57.3896 12.6539 56.6999 12.6539 55.9808ZM34.3462 55.9808C34.3462 56.5171 34.1871 57.0413 33.8892 57.4872C33.5912 57.9331 33.1677 58.2807 32.6723 58.4859C32.1768 58.6911 31.6316 58.7448 31.1056 58.6402C30.5796 58.5356 30.0965 58.2773 29.7173 57.8981C29.3381 57.5189 29.0798 57.0357 28.9752 56.5098C28.8706 55.9838 28.9243 55.4386 29.1295 54.9431C29.3347 54.4476 29.6823 54.0242 30.1282 53.7262C30.5741 53.4283 31.0983 53.2692 31.6346 53.2692C32.3538 53.2692 33.0435 53.5549 33.552 54.0634C34.0605 54.5719 34.3462 55.2616 34.3462 55.9808ZM34.1044 66.8269C31.7792 70.8468 27.913 73.1538 23.5 73.1538C19.087 73.1538 15.223 70.849 12.8979 66.8269C12.7671 66.6212 12.6793 66.3911 12.6397 66.1505C12.6001 65.91 12.6096 65.6639 12.6676 65.4271C12.7256 65.1903 12.831 64.9676 12.9772 64.7726C13.1235 64.5775 13.3077 64.4141 13.5188 64.2921C13.7299 64.1701 13.9634 64.092 14.2055 64.0626C14.4475 64.0332 14.6929 64.0531 14.9271 64.121C15.1612 64.189 15.3792 64.3035 15.5679 64.4579C15.7567 64.6123 15.9122 64.8032 16.0252 65.0192C17.7131 67.9364 20.3659 69.5385 23.5 69.5385C26.6341 69.5385 29.2869 67.9341 30.9726 65.0192C31.2123 64.6039 31.6071 64.3008 32.0703 64.1767C32.5335 64.0525 33.027 64.1174 33.4423 64.3572C33.8576 64.5969 34.1607 64.9917 34.2849 65.4549C34.409 65.9181 34.3441 66.4116 34.1044 66.8269Z" fill="#FCB803"/>
<path d="M339.5 115C334.852 115 330.309 116.378 326.444 118.96C322.58 121.543 319.568 125.213 317.789 129.507C316.01 133.801 315.545 138.526 316.452 143.085C317.358 147.643 319.596 151.83 322.883 155.117C326.17 158.404 330.357 160.642 334.915 161.548C339.474 162.455 344.199 161.99 348.493 160.211C352.787 158.432 356.457 155.42 359.04 151.556C361.622 147.691 363 143.148 363 138.5C362.993 132.269 360.515 126.296 356.11 121.89C351.704 117.485 345.731 115.007 339.5 115ZM339.5 158.385C335.567 158.385 331.723 157.218 328.453 155.033C325.183 152.848 322.634 149.743 321.129 146.11C319.624 142.476 319.23 138.478 319.997 134.621C320.765 130.763 322.659 127.22 325.439 124.439C328.22 121.659 331.763 119.765 335.621 118.997C339.478 118.23 343.476 118.624 347.11 120.129C350.743 121.634 353.849 124.183 356.033 127.453C358.218 130.723 359.385 134.567 359.385 138.5C359.379 143.772 357.282 148.826 353.554 152.554C349.826 156.282 344.772 158.379 339.5 158.385ZM328.654 133.981C328.654 133.444 328.813 132.92 329.111 132.474C329.409 132.028 329.832 131.681 330.328 131.476C330.823 131.27 331.368 131.217 331.894 131.321C332.42 131.426 332.904 131.684 333.283 132.063C333.662 132.443 333.92 132.926 334.025 133.452C334.129 133.978 334.076 134.523 333.871 135.018C333.665 135.514 333.318 135.937 332.872 136.235C332.426 136.533 331.902 136.692 331.365 136.692C330.646 136.692 329.957 136.407 329.448 135.898C328.94 135.39 328.654 134.7 328.654 133.981ZM350.346 133.981C350.346 134.517 350.187 135.041 349.889 135.487C349.591 135.933 349.168 136.281 348.672 136.486C348.177 136.691 347.632 136.745 347.106 136.64C346.58 136.536 346.096 136.277 345.717 135.898C345.338 135.519 345.08 135.036 344.975 134.51C344.871 133.984 344.924 133.439 345.129 132.943C345.335 132.448 345.682 132.024 346.128 131.726C346.574 131.428 347.098 131.269 347.635 131.269C348.354 131.269 349.043 131.555 349.552 132.063C350.06 132.572 350.346 133.262 350.346 133.981ZM350.104 144.827C347.779 148.847 343.913 151.154 339.5 151.154C335.087 151.154 331.223 148.849 328.898 144.827C328.767 144.621 328.679 144.391 328.64 144.151C328.6 143.91 328.61 143.664 328.668 143.427C328.726 143.19 328.831 142.968 328.977 142.773C329.123 142.578 329.308 142.414 329.519 142.292C329.73 142.17 329.963 142.092 330.205 142.063C330.447 142.033 330.693 142.053 330.927 142.121C331.161 142.189 331.379 142.304 331.568 142.458C331.757 142.612 331.912 142.803 332.025 143.019C333.713 145.936 336.366 147.538 339.5 147.538C342.634 147.538 345.287 145.934 346.973 143.019C347.212 142.604 347.607 142.301 348.07 142.177C348.533 142.053 349.027 142.117 349.442 142.357C349.858 142.597 350.161 142.992 350.285 143.455C350.409 143.918 350.344 144.412 350.104 144.827Z" fill="#FCB803"/>
<path d="M617.5 242C612.852 242 608.309 243.378 604.444 245.96C600.58 248.543 597.568 252.213 595.789 256.507C594.01 260.801 593.545 265.526 594.452 270.085C595.358 274.643 597.596 278.83 600.883 282.117C604.17 285.404 608.357 287.642 612.915 288.548C617.474 289.455 622.199 288.99 626.493 287.211C630.787 285.432 634.457 282.42 637.04 278.556C639.622 274.691 641 270.148 641 265.5C640.993 259.269 638.515 253.296 634.11 248.89C629.704 244.485 623.731 242.007 617.5 242ZM617.5 285.385C613.567 285.385 609.723 284.218 606.453 282.033C603.183 279.848 600.634 276.743 599.129 273.11C597.624 269.476 597.23 265.478 597.997 261.621C598.765 257.763 600.659 254.22 603.439 251.439C606.22 248.659 609.763 246.765 613.621 245.997C617.478 245.23 621.476 245.624 625.11 247.129C628.743 248.634 631.849 251.183 634.033 254.453C636.218 257.723 637.385 261.567 637.385 265.5C637.379 270.772 635.282 275.826 631.554 279.554C627.826 283.282 622.772 285.379 617.5 285.385ZM606.654 260.981C606.654 260.444 606.813 259.92 607.111 259.474C607.409 259.028 607.832 258.681 608.328 258.476C608.823 258.27 609.368 258.217 609.894 258.321C610.42 258.426 610.904 258.684 611.283 259.063C611.662 259.443 611.92 259.926 612.025 260.452C612.129 260.978 612.076 261.523 611.871 262.018C611.665 262.514 611.318 262.937 610.872 263.235C610.426 263.533 609.902 263.692 609.365 263.692C608.646 263.692 607.957 263.407 607.448 262.898C606.94 262.39 606.654 261.7 606.654 260.981ZM628.346 260.981C628.346 261.517 628.187 262.041 627.889 262.487C627.591 262.933 627.168 263.281 626.672 263.486C626.177 263.691 625.632 263.745 625.106 263.64C624.58 263.536 624.096 263.277 623.717 262.898C623.338 262.519 623.08 262.036 622.975 261.51C622.871 260.984 622.924 260.439 623.129 259.943C623.335 259.448 623.682 259.024 624.128 258.726C624.574 258.428 625.098 258.269 625.635 258.269C626.354 258.269 627.043 258.555 627.552 259.063C628.06 259.572 628.346 260.262 628.346 260.981ZM628.104 271.827C625.779 275.847 621.913 278.154 617.5 278.154C613.087 278.154 609.223 275.849 606.898 271.827C606.767 271.621 606.679 271.391 606.64 271.151C606.6 270.91 606.61 270.664 606.668 270.427C606.726 270.19 606.831 269.968 606.977 269.773C607.123 269.578 607.308 269.414 607.519 269.292C607.73 269.17 607.963 269.092 608.205 269.063C608.447 269.033 608.693 269.053 608.927 269.121C609.161 269.189 609.379 269.304 609.568 269.458C609.757 269.612 609.912 269.803 610.025 270.019C611.713 272.936 614.366 274.538 617.5 274.538C620.634 274.538 623.287 272.934 624.973 270.019C625.212 269.604 625.607 269.301 626.07 269.177C626.533 269.053 627.027 269.117 627.442 269.357C627.858 269.597 628.161 269.992 628.285 270.455C628.409 270.918 628.344 271.412 628.104 271.827Z" fill="#FCB803"/>
<path d="M507.5 -23C502.852 -23 498.309 -21.6217 494.444 -19.0395C490.58 -16.4573 487.568 -12.7871 485.789 -8.49306C484.01 -4.199 483.545 0.526066 484.452 5.08462C485.358 9.64317 487.596 13.8305 490.883 17.117C494.17 20.4035 498.357 22.6417 502.915 23.5484C507.474 24.4552 512.199 23.9898 516.493 22.2112C520.787 20.4325 524.457 17.4204 527.04 13.5559C529.622 9.69134 531 5.14786 531 0.499994C530.993 -5.73057 528.515 -11.7041 524.11 -16.1097C519.704 -20.5154 513.731 -22.9934 507.5 -23ZM507.5 20.3846C503.567 20.3846 499.723 19.2184 496.453 17.0334C493.183 14.8485 490.634 11.7429 489.129 8.10951C487.624 4.47607 487.23 0.477938 487.997 -3.3793C488.765 -7.23654 490.659 -10.7796 493.439 -13.5605C496.22 -16.3415 499.763 -18.2353 503.621 -19.0025C507.478 -19.7698 511.476 -19.376 515.11 -17.871C518.743 -16.366 521.849 -13.8173 524.033 -10.5473C526.218 -7.2773 527.385 -3.43281 527.385 0.499994C527.379 5.77189 525.282 10.8261 521.554 14.5539C517.826 18.2817 512.772 20.3786 507.5 20.3846ZM496.654 -4.01924C496.654 -4.55553 496.813 -5.07977 497.111 -5.52568C497.409 -5.97159 497.832 -6.31914 498.328 -6.52437C498.823 -6.7296 499.368 -6.7833 499.894 -6.67867C500.42 -6.57405 500.904 -6.3158 501.283 -5.93658C501.662 -5.55737 501.92 -5.07422 502.025 -4.54823C502.129 -4.02224 502.076 -3.47704 501.871 -2.98158C501.665 -2.4861 501.318 -2.06262 500.872 -1.76467C500.426 -1.46672 499.902 -1.3077 499.365 -1.3077C498.646 -1.3077 497.957 -1.59338 497.448 -2.10189C496.94 -2.6104 496.654 -3.30009 496.654 -4.01924ZM518.346 -4.01924C518.346 -3.48294 518.187 -2.9587 517.889 -2.51278C517.591 -2.06688 517.168 -1.71933 516.672 -1.5141C516.177 -1.30887 515.632 -1.25517 515.106 -1.3598C514.58 -1.46442 514.096 -1.72267 513.717 -2.10189C513.338 -2.4811 513.08 -2.96425 512.975 -3.49024C512.871 -4.01623 512.924 -4.56143 513.129 -5.0569C513.335 -5.55236 513.682 -5.97585 514.128 -6.2738C514.574 -6.57174 515.098 -6.73077 515.635 -6.73077C516.354 -6.73077 517.043 -6.44509 517.552 -5.93658C518.06 -5.42807 518.346 -4.73838 518.346 -4.01924ZM518.104 6.82692C515.779 10.8468 511.913 13.1538 507.5 13.1538C503.087 13.1538 499.223 10.849 496.898 6.82692C496.767 6.62117 496.679 6.39109 496.64 6.15052C496.6 5.90995 496.61 5.66386 496.668 5.42706C496.726 5.19026 496.831 4.96764 496.977 4.77259C497.123 4.57755 497.308 4.4141 497.519 4.29209C497.73 4.17008 497.963 4.09203 498.205 4.06263C498.447 4.03324 498.693 4.0531 498.927 4.12103C499.161 4.18896 499.379 4.30354 499.568 4.4579C499.757 4.61226 499.912 4.8032 500.025 5.01922C501.713 7.93639 504.366 9.53846 507.5 9.53846C510.634 9.53846 513.287 7.93413 514.973 5.01922C515.212 4.60392 515.607 4.30085 516.07 4.17669C516.533 4.05252 517.027 4.11744 517.442 4.35716C517.858 4.59687 518.161 4.99175 518.285 5.45492C518.409 5.91809 518.344 6.41161 518.104 6.82692Z" fill="#FCB803"/>
<path d="M36.5 271C31.8521 271 27.3087 272.378 23.4441 274.96C19.5796 277.543 16.5675 281.213 14.7888 285.507C13.0102 289.801 12.5448 294.526 13.4516 299.085C14.3583 303.643 16.5965 307.83 19.883 311.117C23.1695 314.404 27.3568 316.642 31.9154 317.548C36.4739 318.455 41.199 317.99 45.4931 316.211C49.7871 314.432 53.4573 311.42 56.0395 307.556C58.6217 303.691 60 299.148 60 294.5C59.9934 288.269 57.5154 282.296 53.1097 277.89C48.7041 273.485 42.7306 271.007 36.5 271ZM36.5 314.385C32.5672 314.385 28.7227 313.218 25.4527 311.033C22.1827 308.848 19.634 305.743 18.129 302.11C16.624 298.476 16.2302 294.478 16.9975 290.621C17.7647 286.763 19.6585 283.22 22.4395 280.439C25.2204 277.659 28.7635 275.765 32.6207 274.997C36.4779 274.23 40.4761 274.624 44.1095 276.129C47.743 277.634 50.8485 280.183 53.0335 283.453C55.2184 286.723 56.3846 290.567 56.3846 294.5C56.3786 299.772 54.2817 304.826 50.5539 308.554C46.8262 312.282 41.7719 314.379 36.5 314.385ZM25.6539 289.981C25.6539 289.444 25.8129 288.92 26.1108 288.474C26.4088 288.028 26.8323 287.681 27.3277 287.476C27.8232 287.27 28.3684 287.217 28.8944 287.321C29.4204 287.426 29.9035 287.684 30.2827 288.063C30.662 288.443 30.9202 288.926 31.0248 289.452C31.1295 289.978 31.0758 290.523 30.8705 291.018C30.6653 291.514 30.3178 291.937 29.8718 292.235C29.4259 292.533 28.9017 292.692 28.3654 292.692C27.6462 292.692 26.9566 292.407 26.448 291.898C25.9395 291.39 25.6539 290.7 25.6539 289.981ZM47.3462 289.981C47.3462 290.517 47.1871 291.041 46.8892 291.487C46.5912 291.933 46.1677 292.281 45.6723 292.486C45.1768 292.691 44.6316 292.745 44.1056 292.64C43.5796 292.536 43.0965 292.277 42.7173 291.898C42.3381 291.519 42.0798 291.036 41.9752 290.51C41.8706 289.984 41.9243 289.439 42.1295 288.943C42.3347 288.448 42.6823 288.024 43.1282 287.726C43.5741 287.428 44.0983 287.269 44.6346 287.269C45.3538 287.269 46.0435 287.555 46.552 288.063C47.0605 288.572 47.3462 289.262 47.3462 289.981ZM47.1044 300.827C44.7792 304.847 40.913 307.154 36.5 307.154C32.087 307.154 28.223 304.849 25.8979 300.827C25.7671 300.621 25.6793 300.391 25.6397 300.151C25.6001 299.91 25.6096 299.664 25.6676 299.427C25.7256 299.19 25.831 298.968 25.9772 298.773C26.1235 298.578 26.3077 298.414 26.5188 298.292C26.7299 298.17 26.9634 298.092 27.2055 298.063C27.4475 298.033 27.6929 298.053 27.9271 298.121C28.1612 298.189 28.3792 298.304 28.5679 298.458C28.7567 298.612 28.9122 298.803 29.0252 299.019C30.7131 301.936 33.3659 303.538 36.5 303.538C39.6341 303.538 42.2869 301.934 43.9726 299.019C44.2123 298.604 44.6071 298.301 45.0703 298.177C45.5335 298.053 46.027 298.117 46.4423 298.357C46.8576 298.597 47.1607 298.992 47.2849 299.455C47.409 299.918 47.3441 300.412 47.1044 300.827Z" fill="#FCB803"/>
</svg>
