<svg width="130" height="129" viewBox="0 0 130 129" fill="none" xmlns="http://www.w3.org/2000/svg">
<path d="M23.159 96.1543L41 94.5008L23.5486 92.8829L37.7659 77.3544L22.1374 91.6632L20.4992 74L18.844 91.8597L11.8505 86.0521L17.5158 92.8761L0 94.5008L17.631 96.1357L0.252426 114.868L18.8846 97.5825L20.4992 115L22.1221 97.5029L29.0681 103.27L23.159 96.1543Z" fill="#FCB803"/>
<path d="M25.288 27.136V30.4C25.288 35.904 22.216 35.904 22.216 41.536C22.216 47.104 25.288 47.104 25.288 52.736V64H19.656V52.8H13.96V64H8.328V62.016V52.736C8.328 47.104 5.32 47.104 5.32 41.536C5.32 35.904 8.328 35.904 8.328 30.4V27.136C8.328 23.488 10.696 20.352 13.96 19.2C14.856 18.88 15.816 18.688 16.776 18.688C17.8 18.688 18.76 18.88 19.656 19.2C22.92 20.352 25.288 23.488 25.288 27.136ZM19.656 30.4V27.584C19.656 26.048 18.376 24.768 16.776 24.768C15.24 24.768 13.96 26.048 13.96 27.584V30.4C13.96 35.904 10.952 35.904 10.952 41.536C10.952 44.416 11.784 45.76 12.552 47.232H18.184C17.416 45.76 16.584 44.416 16.584 41.536C16.584 35.904 19.656 35.904 19.656 30.4ZM40.281 19.712C43.417 20.8 45.721 23.744 45.849 27.328V27.52C45.849 27.648 45.849 27.84 45.849 27.968C45.849 30.464 44.441 32.32 43.353 33.152C44.569 34.752 43.609 36.736 43.161 38.848C42.969 39.616 42.841 40.512 42.841 41.6C42.841 47.104 45.849 47.104 45.849 52.736V54.208V64H40.217V54.208V52.736C40.217 47.104 37.209 47.104 37.209 41.6C37.209 40.064 37.465 38.912 37.785 38.016C38.233 36.8 37.721 35.968 35.353 35.968H33.049C32.345 37.376 31.577 38.784 31.577 41.6C31.577 47.104 34.585 47.104 34.585 52.736V55.36C34.585 56.256 34.585 57.216 34.585 58.24V64H28.953V52.736C28.953 47.104 25.945 47.104 25.945 41.6C25.945 35.968 28.953 35.968 28.953 30.464V19.2H37.465C38.425 19.2 39.385 19.392 40.281 19.712ZM34.649 30.336H37.465C38.937 30.336 40.089 29.248 40.217 27.776C40.217 27.712 40.281 27.648 40.281 27.584V27.52C40.281 27.456 40.217 27.456 40.217 27.392C40.089 25.92 38.937 24.832 37.465 24.832H34.649V30.336ZM60.8435 29.888V27.136C60.8435 25.536 59.5635 24.32 57.9635 24.32C56.4275 24.32 55.1475 25.536 55.1475 27.136V30.4C55.1475 35.968 52.1395 35.968 52.1395 41.536C52.1395 47.104 55.1475 47.104 55.1475 52.736V56C55.1475 57.6 56.4275 58.816 57.9635 58.816C59.5635 58.816 60.8435 57.6 60.8435 56V53.248H66.4755V56C66.4755 59.712 64.1075 62.848 60.8435 64C59.9475 64.32 58.9875 64.448 57.9635 64.448C57.0035 64.448 56.0435 64.32 55.1475 64C51.8835 62.784 49.5155 59.712 49.5155 56V52.736C49.5155 47.104 46.5075 47.104 46.5075 41.536C46.5075 35.968 49.5155 35.968 49.5155 30.4V27.136C49.5155 23.488 51.8835 20.352 55.1475 19.2V19.136C56.0435 18.816 57.0035 18.688 57.9635 18.688C58.9875 18.688 59.9475 18.816 60.8435 19.136C64.1075 20.288 66.4755 23.424 66.4755 27.136V29.888H60.8435ZM87.0365 19.2V30.464C87.0365 35.968 84.0285 35.968 84.0285 41.6C84.0285 47.104 87.0365 47.104 87.0365 52.736V64H81.4045V52.736C81.4045 47.104 78.3965 47.104 78.3965 41.6C78.3965 38.784 79.1645 37.376 79.9325 35.968H74.3005C73.5325 37.376 72.7645 38.784 72.7645 41.6C72.7645 47.104 75.7725 47.104 75.7725 52.736V64H70.1405V52.736C70.1405 47.104 67.1325 47.104 67.1325 41.6C67.1325 35.968 70.1405 35.968 70.1405 30.464V19.2H75.7725V30.4H81.4045V19.2H87.0365ZM90.703 64V52.736C90.703 47.104 87.695 47.104 87.695 41.6C87.695 35.968 90.703 35.968 90.703 30.464V19.2H96.335V30.464C96.335 35.968 93.327 35.968 93.327 41.6C93.327 47.104 96.335 47.104 96.335 52.736V64H90.703Z" fill="#0034EB"/>
<path d="M61.656 81.888V79.136C61.656 77.536 60.376 76.32 58.776 76.32C57.24 76.32 55.96 77.536 55.96 79.136V82.4C55.96 87.968 52.952 87.968 52.952 93.536C52.952 99.104 55.96 99.104 55.96 104.736V108C55.96 109.6 57.24 110.816 58.776 110.816C60.376 110.816 61.656 109.6 61.656 108V105.248H67.288V108C67.288 111.712 64.92 114.848 61.656 116C60.76 116.32 59.8 116.448 58.776 116.448C57.816 116.448 56.856 116.32 55.96 116C52.696 114.784 50.328 111.712 50.328 108V104.736C50.328 99.104 47.32 99.104 47.32 93.536C47.32 87.968 50.328 87.968 50.328 82.4V79.136C50.328 75.488 52.696 72.352 55.96 71.2V71.136C56.856 70.816 57.816 70.688 58.776 70.688C59.8 70.688 60.76 70.816 61.656 71.136C64.92 72.288 67.288 75.424 67.288 79.136V81.888H61.656ZM82.281 71.2C85.545 72.352 87.913 75.488 87.913 79.136V79.968C87.913 80.224 87.913 80.928 87.913 81.248V82.464C87.913 87.968 84.905 87.968 84.905 93.6C84.905 99.104 87.913 99.104 87.913 104.736V108C87.913 111.712 85.545 114.848 82.281 116C81.385 116.32 80.425 116.448 79.465 116.448C78.441 116.448 77.545 116.32 76.649 116C73.321 114.848 71.017 111.712 71.017 108V104.736C71.017 99.104 67.945 99.104 67.945 93.6C67.945 87.968 71.017 87.968 71.017 82.464V81.248C71.017 80.864 71.017 80.032 71.017 79.776V79.136C71.017 75.488 73.321 72.352 76.649 71.2C77.545 70.88 78.441 70.688 79.465 70.688C80.425 70.688 81.385 70.88 82.281 71.2ZM82.281 79.968V79.136C82.281 77.6 81.001 76.32 79.465 76.32C77.865 76.32 76.649 77.6 76.649 79.136V79.968C76.649 80.224 76.649 80.928 76.649 81.248V82.464C76.649 87.968 73.577 87.968 73.577 93.6C73.577 99.104 76.649 99.104 76.649 104.736V108C76.649 109.6 77.865 110.816 79.465 110.816C81.001 110.816 82.281 109.6 82.281 108V104.736C82.281 99.104 79.273 99.104 79.273 93.6C79.273 87.968 82.281 87.968 82.281 82.464V81.248C82.281 80.928 82.281 80.224 82.281 79.968ZM102.906 71.2C106.17 72.352 108.538 75.488 108.538 79.136V79.968C108.538 80.224 108.538 80.928 108.538 81.248V82.464C108.538 87.968 105.53 87.968 105.53 93.6C105.53 99.104 108.538 99.104 108.538 104.736V108C108.538 111.712 106.17 114.848 102.906 116C102.01 116.32 101.05 116.448 100.09 116.448C99.066 116.448 98.17 116.32 97.274 116C93.946 114.848 91.642 111.712 91.642 108V104.736C91.642 99.104 88.57 99.104 88.57 93.6C88.57 87.968 91.642 87.968 91.642 82.464V81.248C91.642 80.864 91.642 80.032 91.642 79.776V79.136C91.642 75.488 93.946 72.352 97.274 71.2C98.17 70.88 99.066 70.688 100.09 70.688C101.05 70.688 102.01 70.88 102.906 71.2ZM102.906 79.968V79.136C102.906 77.6 101.626 76.32 100.09 76.32C98.49 76.32 97.274 77.6 97.274 79.136V79.968C97.274 80.224 97.274 80.928 97.274 81.248V82.464C97.274 87.968 94.202 87.968 94.202 93.6C94.202 99.104 97.274 99.104 97.274 104.736V108C97.274 109.6 98.49 110.816 100.09 110.816C101.626 110.816 102.906 109.6 102.906 108V104.736C102.906 99.104 99.898 99.104 99.898 93.6C99.898 87.968 102.906 87.968 102.906 82.464V81.248C102.906 80.928 102.906 80.224 102.906 79.968ZM129.099 110.368V116H112.203V104.736C112.203 99.104 109.195 99.104 109.195 93.6C109.195 87.968 112.203 87.968 112.203 82.464V71.2H117.835V82.464C117.835 87.968 114.827 87.968 114.827 93.6C114.827 99.104 117.835 99.104 117.835 104.736V110.368H129.099Z" fill="#0034EB"/>
</svg>
