<svg width="511" height="511" viewBox="0 0 511 511" fill="none" xmlns="http://www.w3.org/2000/svg">
<path d="M255.5 47.9062C214.442 47.9063 174.306 60.0814 140.167 82.8921C106.028 105.703 79.4207 138.125 63.7084 176.057C47.9961 213.99 43.8851 255.73 51.8951 296C59.9052 336.269 79.6765 373.258 108.709 402.291C137.742 431.323 174.731 451.095 215 459.105C255.27 467.115 297.01 463.004 334.943 447.292C372.875 431.579 405.297 404.971 428.108 370.833C450.919 336.694 463.094 296.558 463.094 255.5C463.036 200.461 441.146 147.692 402.227 108.773C363.308 69.8545 310.539 47.9644 255.5 47.9062ZM255.5 431.156C220.758 431.156 186.797 420.854 157.911 401.553C129.024 382.251 106.51 354.818 93.2148 322.721C79.9198 290.624 76.4412 255.305 83.2189 221.231C89.9967 187.157 106.726 155.858 131.292 131.292C155.858 106.726 187.157 89.9967 221.231 83.2189C255.305 76.4412 290.624 79.9198 322.721 93.2148C354.818 106.51 382.251 129.024 401.553 157.911C420.854 186.797 431.156 220.758 431.156 255.5C431.103 302.071 412.58 346.719 379.649 379.649C346.719 412.58 302.071 431.103 255.5 431.156ZM159.688 215.578C159.688 210.841 161.092 206.21 163.724 202.27C166.356 198.331 170.097 195.261 174.474 193.448C178.851 191.635 183.667 191.161 188.314 192.085C192.96 193.009 197.228 195.291 200.578 198.641C203.928 201.991 206.209 206.259 207.133 210.905C208.058 215.552 207.583 220.368 205.77 224.745C203.957 229.121 200.887 232.862 196.948 235.494C193.009 238.126 188.378 239.531 183.641 239.531C177.288 239.531 171.195 237.008 166.703 232.516C162.211 228.023 159.688 221.931 159.688 215.578ZM351.312 215.578C351.312 220.316 349.908 224.947 347.276 228.886C344.644 232.825 340.903 235.895 336.526 237.708C332.149 239.521 327.333 239.995 322.686 239.071C318.04 238.147 313.772 235.865 310.422 232.516C307.072 229.166 304.791 224.898 303.867 220.251C302.942 215.605 303.417 210.789 305.23 206.412C307.043 202.035 310.113 198.294 314.052 195.662C317.991 193.03 322.622 191.625 327.359 191.625C333.712 191.625 339.805 194.149 344.297 198.641C348.789 203.133 351.312 209.225 351.312 215.578ZM349.177 311.391C328.637 346.901 294.484 367.281 255.5 367.281C216.516 367.281 182.383 346.921 161.843 311.391C160.688 309.573 159.912 307.541 159.563 305.415C159.213 303.29 159.297 301.116 159.809 299.025C160.322 296.933 161.252 294.966 162.544 293.243C163.836 291.52 165.464 290.076 167.328 288.999C169.193 287.921 171.256 287.231 173.394 286.972C175.532 286.712 177.7 286.887 179.769 287.487C181.837 288.087 183.763 289.1 185.43 290.463C187.097 291.827 188.471 293.514 189.469 295.422C204.38 321.191 227.814 335.344 255.5 335.344C283.186 335.344 306.62 321.171 321.511 295.422C323.628 291.753 327.117 289.076 331.208 287.979C335.3 286.882 339.659 287.456 343.328 289.573C346.997 291.691 349.674 295.179 350.771 299.271C351.868 303.362 351.294 307.722 349.177 311.391Z" fill="#0034EB" fill-opacity="0.86"/>
</svg>
