<svg width="1440" height="850" viewBox="0 0 1440 850" fill="none" xmlns="http://www.w3.org/2000/svg">
<line x1="45.25" y1="1.09278e-08" x2="45.25" y2="850" stroke="#0034EB" stroke-width="0.5"/>
<line x1="225.25" y1="1.09278e-08" x2="225.25" y2="850" stroke="#0034EB" stroke-width="0.5"/>
<line x1="405.25" y1="1.09278e-08" x2="405.25" y2="850" stroke="#0034EB" stroke-width="0.5"/>
<line x1="585.25" y1="1.09278e-08" x2="585.25" y2="850" stroke="#0034EB" stroke-width="0.5"/>
<line x1="765.25" y1="1.09278e-08" x2="765.25" y2="850" stroke="#0034EB" stroke-width="0.5"/>
<line x1="945.25" y1="1.09278e-08" x2="945.25" y2="850" stroke="#0034EB" stroke-width="0.5"/>
<line x1="1125.25" y1="1.09278e-08" x2="1125.25" y2="850" stroke="#0034EB" stroke-width="0.5"/>
<line x1="1305.25" y1="1.09278e-08" x2="1305.25" y2="850" stroke="#0034EB" stroke-width="0.5"/>
<line x1="90.2501" y1="1.09278e-08" x2="90.25" y2="850" stroke="#0034EB" stroke-width="0.5"/>
<line x1="270.25" y1="1.09278e-08" x2="270.25" y2="850" stroke="#0034EB" stroke-width="0.5"/>
<line x1="450.25" y1="1.09278e-08" x2="450.25" y2="850" stroke="#0034EB" stroke-width="0.5"/>
<line x1="630.25" y1="1.09278e-08" x2="630.25" y2="850" stroke="#0034EB" stroke-width="0.5"/>
<line x1="810.25" y1="1.09278e-08" x2="810.25" y2="850" stroke="#0034EB" stroke-width="0.5"/>
<line x1="990.25" y1="1.09278e-08" x2="990.25" y2="850" stroke="#0034EB" stroke-width="0.5"/>
<line x1="1170.25" y1="1.09278e-08" x2="1170.25" y2="850" stroke="#0034EB" stroke-width="0.5"/>
<line x1="1350.25" y1="1.09278e-08" x2="1350.25" y2="850" stroke="#0034EB" stroke-width="0.5"/>
<line x1="135.25" y1="1.09278e-08" x2="135.25" y2="850" stroke="#0034EB" stroke-width="0.5"/>
<line x1="315.25" y1="1.09278e-08" x2="315.25" y2="850" stroke="#0034EB" stroke-width="0.5"/>
<line x1="495.25" y1="1.09278e-08" x2="495.25" y2="850" stroke="#0034EB" stroke-width="0.5"/>
<line x1="675.25" y1="1.09278e-08" x2="675.25" y2="850" stroke="#0034EB" stroke-width="0.5"/>
<line x1="855.25" y1="1.09278e-08" x2="855.25" y2="850" stroke="#0034EB" stroke-width="0.5"/>
<line x1="1035.25" y1="1.09278e-08" x2="1035.25" y2="850" stroke="#0034EB" stroke-width="0.5"/>
<line x1="1215.25" y1="1.09278e-08" x2="1215.25" y2="850" stroke="#0034EB" stroke-width="0.5"/>
<line x1="1395.25" y1="1.09278e-08" x2="1395.25" y2="850" stroke="#0034EB" stroke-width="0.5"/>
<line x1="180.25" y1="1.09278e-08" x2="180.25" y2="850" stroke="#0034EB" stroke-width="0.5"/>
<line x1="360.25" y1="1.09278e-08" x2="360.25" y2="850" stroke="#0034EB" stroke-width="0.5"/>
<line x1="540.25" y1="1.09278e-08" x2="540.25" y2="850" stroke="#0034EB" stroke-width="0.5"/>
<line x1="720.25" y1="1.09278e-08" x2="720.25" y2="850" stroke="#0034EB" stroke-width="0.5"/>
<line x1="900.25" y1="1.09278e-08" x2="900.25" y2="850" stroke="#0034EB" stroke-width="0.5"/>
<line x1="1080.25" y1="1.09278e-08" x2="1080.25" y2="850" stroke="#0034EB" stroke-width="0.5"/>
<line x1="1260.25" y1="1.09278e-08" x2="1260.25" y2="850" stroke="#0034EB" stroke-width="0.5"/>
<line x1="1440.25" y1="1.09278e-08" x2="1440.25" y2="850" stroke="#0034EB" stroke-width="0.5"/>
<line x1="225.25" y1="1.09278e-08" x2="225.25" y2="850" stroke="#0034EB" stroke-width="0.5"/>
<line x1="405.25" y1="1.09278e-08" x2="405.25" y2="850" stroke="#0034EB" stroke-width="0.5"/>
<line x1="585.25" y1="1.09278e-08" x2="585.25" y2="850" stroke="#0034EB" stroke-width="0.5"/>
<line x1="765.25" y1="1.09278e-08" x2="765.25" y2="850" stroke="#0034EB" stroke-width="0.5"/>
<line x1="945.25" y1="1.09278e-08" x2="945.25" y2="850" stroke="#0034EB" stroke-width="0.5"/>
<line x1="1125.25" y1="1.09278e-08" x2="1125.25" y2="850" stroke="#0034EB" stroke-width="0.5"/>
<line x1="1305.25" y1="1.09278e-08" x2="1305.25" y2="850" stroke="#0034EB" stroke-width="0.5"/>
<line y1="44.75" x2="1440" y2="44.75" stroke="#0034EB" stroke-width="0.5"/>
<line y1="224.75" x2="1440" y2="224.75" stroke="#0034EB" stroke-width="0.5"/>
<line y1="404.75" x2="1440" y2="404.75" stroke="#0034EB" stroke-width="0.5"/>
<line y1="584.75" x2="1440" y2="584.75" stroke="#0034EB" stroke-width="0.5"/>
<line y1="89.75" x2="1440" y2="89.75" stroke="#0034EB" stroke-width="0.5"/>
<line y1="269.75" x2="1440" y2="269.75" stroke="#0034EB" stroke-width="0.5"/>
<line y1="449.75" x2="1440" y2="449.75" stroke="#0034EB" stroke-width="0.5"/>
<line y1="629.75" x2="1440" y2="629.75" stroke="#0034EB" stroke-width="0.5"/>
<line y1="134.75" x2="1440" y2="134.75" stroke="#0034EB" stroke-width="0.5"/>
<line y1="314.75" x2="1440" y2="314.75" stroke="#0034EB" stroke-width="0.5"/>
<line y1="494.75" x2="1440" y2="494.75" stroke="#0034EB" stroke-width="0.5"/>
<line y1="674.75" x2="1440" y2="674.75" stroke="#0034EB" stroke-width="0.5"/>
<line y1="179.75" x2="1440" y2="179.75" stroke="#0034EB" stroke-width="0.5"/>
<line y1="359.75" x2="1440" y2="359.75" stroke="#0034EB" stroke-width="0.5"/>
<line y1="539.75" x2="1440" y2="539.75" stroke="#0034EB" stroke-width="0.5"/>
<line y1="719.75" x2="1440" y2="719.75" stroke="#0034EB" stroke-width="0.5"/>
<line y1="224.75" x2="1440" y2="224.75" stroke="#0034EB" stroke-width="0.5"/>
<line y1="404.75" x2="1440" y2="404.75" stroke="#0034EB" stroke-width="0.5"/>
<line y1="584.75" x2="1440" y2="584.75" stroke="#0034EB" stroke-width="0.5"/>
<line y1="764.75" x2="1440" y2="764.75" stroke="#0034EB" stroke-width="0.5"/>
<line y1="809.75" x2="1440" y2="809.75" stroke="#0034EB" stroke-width="0.5"/>
</svg>
