<svg width="47" height="47" viewBox="0 0 47 47" fill="none" xmlns="http://www.w3.org/2000/svg">
<path d="M23.5 0C18.8521 0 14.3087 1.37825 10.4441 3.96046C6.57955 6.54268 3.5675 10.2129 1.78884 14.5069C0.0101822 18.801 -0.455196 23.5261 0.451556 28.0846C1.35831 32.6432 3.59647 36.8305 6.883 40.117C10.1695 43.4035 14.3568 45.6417 18.9154 46.5484C23.4739 47.4552 28.199 46.9898 32.4931 45.2112C36.7871 43.4325 40.4573 40.4204 43.0395 36.5559C45.6217 32.6913 47 28.1479 47 23.5C46.9934 17.2694 44.5154 11.2959 40.1097 6.89026C35.7041 2.48458 29.7306 0.00657959 23.5 0ZM23.5 43.3846C19.5672 43.3846 15.7227 42.2184 12.4527 40.0334C9.1827 37.8485 6.63404 34.7429 5.12902 31.1095C3.624 27.4761 3.23022 23.4779 3.99747 19.6207C4.76472 15.7635 6.65855 12.2204 9.43946 9.43945C12.2204 6.65854 15.7635 4.76471 19.6207 3.99746C23.4779 3.23021 27.4761 3.62399 31.1095 5.12901C34.743 6.63403 37.8485 9.18269 40.0335 12.4527C42.2184 15.7227 43.3846 19.5672 43.3846 23.5C43.3786 28.7719 41.2817 33.8261 37.5539 37.5539C33.8262 41.2817 28.7719 43.3786 23.5 43.3846ZM12.6539 18.9808C12.6539 18.4445 12.8129 17.9202 13.1108 17.4743C13.4088 17.0284 13.8323 16.6809 14.3277 16.4756C14.8232 16.2704 15.3684 16.2167 15.8944 16.3213C16.4204 16.426 16.9035 16.6842 17.2827 17.0634C17.662 17.4426 17.9202 17.9258 18.0248 18.4518C18.1295 18.9778 18.0758 19.523 17.8705 20.0184C17.6653 20.5139 17.3178 20.9374 16.8718 21.2353C16.4259 21.5333 15.9017 21.6923 15.3654 21.6923C14.6462 21.6923 13.9566 21.4066 13.448 20.8981C12.9395 20.3896 12.6539 19.6999 12.6539 18.9808ZM34.3462 18.9808C34.3462 19.5171 34.1871 20.0413 33.8892 20.4872C33.5912 20.9331 33.1677 21.2807 32.6723 21.4859C32.1768 21.6911 31.6316 21.7448 31.1056 21.6402C30.5796 21.5356 30.0965 21.2773 29.7173 20.8981C29.3381 20.5189 29.0798 20.0357 28.9752 19.5098C28.8706 18.9838 28.9243 18.4386 29.1295 17.9431C29.3347 17.4476 29.6823 17.0242 30.1282 16.7262C30.5741 16.4283 31.0983 16.2692 31.6346 16.2692C32.3538 16.2692 33.0435 16.5549 33.552 17.0634C34.0605 17.5719 34.3462 18.2616 34.3462 18.9808ZM34.1044 29.8269C31.7792 33.8468 27.913 36.1538 23.5 36.1538C19.087 36.1538 15.223 33.849 12.8979 29.8269C12.7671 29.6212 12.6793 29.3911 12.6397 29.1505C12.6001 28.91 12.6096 28.6639 12.6676 28.4271C12.7256 28.1903 12.831 27.9676 12.9772 27.7726C13.1235 27.5775 13.3077 27.4141 13.5188 27.2921C13.7299 27.1701 13.9634 27.092 14.2055 27.0626C14.4475 27.0332 14.6929 27.0531 14.9271 27.121C15.1612 27.189 15.3792 27.3035 15.5679 27.4579C15.7567 27.6123 15.9122 27.8032 16.0252 28.0192C17.7131 30.9364 20.3659 32.5385 23.5 32.5385C26.6341 32.5385 29.2869 30.9341 30.9726 28.0192C31.2123 27.6039 31.6071 27.3008 32.0703 27.1767C32.5335 27.0525 33.027 27.1174 33.4423 27.3572C33.8576 27.5969 34.1607 27.9917 34.2849 28.4549C34.409 28.9181 34.3441 29.4116 34.1044 29.8269Z" fill="#FCB803"/>
</svg>
